<?xml version="1.0" encoding="UTF-8"?>
<svg version="1.1" xmlns="http://www.w3.org/2000/svg" width="2048" height="2048">
<path d="M0 0 C675.84 0 1351.68 0 2048 0 C2048 675.84 2048 1351.68 2048 2048 C1372.16 2048 696.32 2048 0 2048 C0 1372.16 0 696.32 0 0 Z " fill="#131418" transform="translate(0,0)"/>
<path d="M0 0 C296.46464646 0 296.46464646 0 352.734375 55.70703125 C374.23325778 77.46538331 385.91407621 105.26279304 391.56640625 134.875 C391.99243248 136.96291235 392.51179 139.00437212 393.0625 141.0625 C394.87309799 148.14505694 395.15992979 155.39189717 395.203125 162.671875 C395.21009399 163.4684552 395.21706299 164.2650354 395.22424316 165.08575439 C395.24152761 167.64055738 395.24796206 170.195141 395.25 172.75 C395.25100708 173.62205078 395.25201416 174.49410156 395.25305176 175.39257812 C395.23852861 193.96853215 393.40680996 211.17159691 388 229 C387.43345703 230.88525391 387.43345703 230.88525391 386.85546875 232.80859375 C385.9204311 235.8780283 384.96968441 238.94136779 384 242 C383.34 242 382.68 242 382 242 C381.34 244.97 380.68 247.94 380 251 C380.75093681 250.99631283 381.50187363 250.99262566 382.2755661 250.98882675 C400.660076 250.89997619 419.04454231 250.83404987 437.42922211 250.79275131 C446.32040686 250.77224202 455.21144714 250.74434797 464.10253906 250.69824219 C471.86400478 250.65801386 479.62536575 250.63248302 487.38693285 250.62364602 C491.48578417 250.61849125 495.58433615 250.60662817 499.68309021 250.57707977 C524.29907725 250.40668185 547.48101175 252.11809769 571 260 C572.010625 260.32871094 573.02125 260.65742187 574.0625 260.99609375 C583.82668473 264.33866267 594.50347582 268.67986462 602 276 C602 276.66 602 277.32 602 278 C602.82564453 278.34224609 602.82564453 278.34224609 603.66796875 278.69140625 C620.74520257 288.27410864 628.01189172 309.39491195 633 327 C633.176521 327.58620117 633.35304199 328.17240234 633.53491211 328.77636719 C634.6566434 334.1394793 634.29255856 339.78759834 634.3125 345.25 C634.31511841 345.9281778 634.31773682 346.60635559 634.32043457 347.30508423 C634.32479016 357.80252122 633.53411791 367.07310908 630 377 C629.65324219 378.05058594 629.30648437 379.10117187 628.94921875 380.18359375 C621.65611915 401.3870841 605.56491418 417.09247365 585.86767578 427.13476562 C582.28924595 428.79253756 578.8941048 429.5132369 575 430 C575 430.66 575 431.32 575 432 C576.16660156 432.12246094 577.33320312 432.24492188 578.53515625 432.37109375 C598.99089764 434.95445665 620.13670042 445.69097599 633.875 461.0625 C636 464 636 464 636 466 C636.66 466 637.32 466 638 466 C646.84387467 477.87315588 653.31233162 492.46591639 656 507 C656.18433594 507.99644531 656.36867188 508.99289062 656.55859375 510.01953125 C657.33200793 515.68532933 657.18435767 521.41853013 657.1875 527.125 C657.19974609 528.27226563 657.21199219 529.41953125 657.22460938 530.6015625 C657.26867929 556.69095049 648.64432741 580.69575329 631 600 C630.28070312 600.78890625 629.56140625 601.5778125 628.8203125 602.390625 C612.10822198 619.87587273 589.70930953 629.08396496 566.5 634.375 C565.8196167 634.5306543 565.1392334 634.68630859 564.43823242 634.84667969 C550.96612875 637.67609663 537.11913523 637.13734883 523.43261719 637.11352539 C521.15501405 637.11324297 518.87741082 637.11340233 516.59980774 637.1139679 C510.44574789 637.11425372 504.2917077 637.10839169 498.1376524 637.10139394 C491.69546802 637.09512467 485.25328315 637.09455378 478.81109619 637.09336853 C468.00768658 637.09061782 457.20428498 637.08438 446.40087891 637.07543945 C435.27880896 637.06624483 424.15674096 637.05917405 413.03466797 637.05493164 C412.34782467 637.05466892 411.66098138 637.05440619 410.95332465 637.05413551 C407.50725181 637.05283037 404.06117896 637.05156668 400.61510611 637.05032361 C372.07673256 637.03997562 343.53836656 637.022304 315 637 C314.70240481 602.10303449 314.4733558 567.20635879 314.33615072 532.30839831 C314.31989165 528.18785591 314.30306545 524.06731601 314.28588867 519.94677734 C314.28247864 519.12645676 314.2790686 518.30613619 314.27555523 517.46095741 C314.21899663 504.18049461 314.11650361 490.9007638 313.99701365 477.62073517 C313.87541652 463.99279267 313.80323074 450.36523335 313.77684957 436.73677063 C313.75901606 428.32764032 313.70271389 419.92057883 313.59708593 411.5120855 C313.5283319 405.74493371 313.50760496 399.97885023 313.52448209 394.21131843 C313.53280856 390.88261787 313.51302147 387.56043634 313.45032883 384.2318821 C313.10132956 364.74781124 313.10132956 364.74781124 316.26007676 360.17638016 C319.69029538 356.94416402 323.55508201 355.49753021 328 354 C329.80920529 353.05363166 331.60488274 352.08010586 333.375 351.0625 C334.24640625 350.59714844 335.1178125 350.13179687 336.015625 349.65234375 C340.46376146 347.18956662 344.80012771 344.54569264 349.13818359 341.89477539 C353.8983704 339 353.8983704 339 355 339 C355 364.41 355 389.82 355 416 C385.73737275 415.90932098 385.73737275 415.90932098 416.47460938 415.79101562 C429.01650661 415.73661236 441.55836369 415.68519578 454.1003418 415.65356445 C463.23625985 415.6305093 472.37207172 415.597028 481.50790542 415.55129844 C486.3402069 415.52746717 491.17240386 415.5086725 496.00476265 415.50238609 C500.56434129 415.49628922 505.12365287 415.47612565 509.68313217 415.44572449 C511.34580942 415.43701735 513.00852169 415.43320625 514.67122078 415.43499184 C537.52193899 415.45176535 560.71757841 411.05875068 577.5625 394.6875 C580.11339439 392.07802178 580.11339439 392.07802178 582 389 C582.66 389 583.32 389 584 389 C584.15855469 388.44054687 584.31710937 387.88109375 584.48046875 387.3046875 C584.71378906 386.50289062 584.94710937 385.70109375 585.1875 384.875 C585.455625 383.94558594 585.72375 383.01617188 586 382.05859375 C587 379 587 379 588.3125 376.09765625 C594.61988783 361.60141546 594.14332587 343.16778573 589.3203125 328.2265625 C582.93582138 312.6242262 572.37767025 303.30135344 556.97801971 296.81797791 C556.32527321 296.5480452 555.6725267 296.27811249 555 296 C554.37809029 295.73937271 553.75618057 295.47874542 553.11542511 295.21022034 C534.96374124 288.00025841 515.60935295 289.04647464 496.42566204 289.06232071 C492.54082627 289.06256266 488.65613606 289.04533682 484.77134156 289.02876568 C475.60999137 288.99055377 466.4490056 288.98444306 457.28759766 288.99804688 C447.86127375 289.01138526 438.43650365 288.96531503 429.01049495 288.89141941 C420.87742306 288.82999317 412.74485161 288.80730632 404.61155248 288.81509304 C399.7703479 288.81921649 394.930361 288.80844698 390.08937836 288.75930786 C385.54769634 288.71470554 381.00855842 288.71857369 376.46686363 288.7591629 C374.8064468 288.76596664 373.145857 288.75587343 371.4856739 288.72719574 C362.2348473 288.43925836 362.2348473 288.43925836 354.04712677 292.21615601 C351.78886191 294.7063718 349.88059175 297.2193812 348 300 C346.35353315 301.68662458 344.68816933 303.35511706 343 305 C342.48824219 305.556875 341.97648437 306.11375 341.44921875 306.6875 C332.32310781 316.38032875 321.27617186 323.53294874 309.6875 329.9375 C308.47078613 330.61002808 308.47078613 330.61002808 307.22949219 331.29614258 C302.36109593 333.91465981 297.4406341 336.13201404 292.28027344 338.11376953 C290.01145883 338.99554651 287.78983269 339.95638813 285.5625 340.9375 C271.19146594 346.60557865 256.23095241 348.964009 240.94506836 350.5769043 C238.16501672 350.9233015 238.16501672 350.9233015 236.14570904 351.47083569 C227.62395604 353.54343226 219.0464302 353.26590109 210.34130859 353.22705078 C208.53787558 353.22643728 206.73444209 353.2267065 204.93100929 353.2277813 C200.12482759 353.22823068 195.31874656 353.21668401 190.5125885 353.20256042 C185.99382224 353.19112539 181.4750798 353.19063173 176.95629883 353.18920898 C163.76251935 353.17873661 150.56875838 353.15081412 137.375 353.125 C107.88125 353.08375 78.3875 353.0425 48 353 C48 446.72 48 540.44 48 637 C32.16 637 16.32 637 0 637 C0 426.79 0 216.58 0 0 Z " fill="#FCFBFC" transform="translate(710,614)"/>
<path d="M0 0 C28.194375 -0.0825 56.38875 -0.165 85.4375 -0.25 C94.29392334 -0.28641602 103.15034668 -0.32283203 112.27514648 -0.36035156 C123.20715332 -0.37841797 123.20715332 -0.37841797 128.34754944 -0.3817749 C131.88822243 -0.38545639 135.42864815 -0.40026185 138.96925354 -0.42230225 C164.31984232 -0.57313424 188.62248426 0.11867831 213.0625 7.75 C214.18390381 8.09144043 215.30530762 8.43288086 216.46069336 8.78466797 C225.52067843 11.64186179 233.78438441 15.2605984 242 20 C243.05058594 20.58265625 244.10117187 21.1653125 245.18359375 21.765625 C250.14981273 24.60346442 250.14981273 24.60346442 252 26 C252 26.66 252 27.32 252 28 C252.886875 28.20625 253.77375 28.4125 254.6875 28.625 C258.12366139 30.05133114 259.5736494 31.510722 261.796875 34.4375 C263.10013215 36.19946183 263.10013215 36.19946183 265.3125 38.3125 C266.199375 39.199375 267.08625 40.08625 268 41 C268.56332031 41.54269531 269.12664062 42.08539062 269.70703125 42.64453125 C281.36621338 54.68364599 288.08562168 70.23023123 293 86 C293.58065902 87.5634958 294.16343774 89.12620927 294.75 90.6875 C298.60772189 102.86546488 298.37268669 115.82420007 298.37060547 128.45825195 C298.37498765 131.42912798 298.41145772 134.39852481 298.44921875 137.36914062 C298.5155282 148.64521467 297.57962914 158.28261444 294 169 C293.59053788 170.46512067 293.18784724 171.932181 292.796875 173.40234375 C289.89071216 183.21606527 285.78497863 191.97060519 281 201 C279.9945934 202.99728755 278.99259494 204.99631457 278 207 C277.34 207 276.68 207 276 207 C275.773125 207.70640625 275.54625 208.4128125 275.3125 209.140625 C273.73841672 212.56987786 271.56457251 215.04319588 269 217.75 C268.51015625 218.27295654 268.0203125 218.79591309 267.515625 219.3347168 C252.90228611 234.75075359 235.22911039 245.52885985 215 252 C213.8553125 252.40992188 212.710625 252.81984375 211.53125 253.2421875 C186.50975046 261.81737736 158.81151634 260.42925601 132.71591187 260.30384064 C128.48947578 260.28642098 124.2630935 260.28593352 120.03662109 260.28381348 C107.77438193 260.26823373 95.51218751 260.22635081 83.25 260.1875 C42.04125 260.0946875 42.04125 260.0946875 0 260 C0 174.2 0 88.4 0 0 Z " fill="#131418" transform="translate(758,660)"/>
<path d="M0 0 C46.50970149 -0.20151517 46.50970149 -0.20151517 66.109375 -0.24414062 C79.60328758 -0.27372424 93.09704321 -0.30836266 106.59082031 -0.37719727 C116.42148973 -0.42732131 126.25203092 -0.459359 136.08282459 -0.47044247 C141.27934785 -0.47691253 146.47550456 -0.49191904 151.67190933 -0.52865028 C185.73521823 -0.75980171 218.62515438 0.3324931 244.6328125 25.4140625 C258.09896068 40.12460721 261.85296245 59.62733298 261.11376953 78.99511719 C260.6412135 87.32264972 259.56524339 95.42045585 256 103 C255.53851562 104.05832031 255.07703125 105.11664062 254.6015625 106.20703125 C250.58176399 114.9165947 245.94063133 121.26793522 239 128 C238.46503906 128.53238281 237.93007812 129.06476563 237.37890625 129.61328125 C231.06363119 135.39184738 222.66360356 138.25373994 214.75 141.125 C214.09604248 141.36661865 213.44208496 141.6082373 212.76831055 141.85717773 C199.38747886 146.54874049 186.79937806 147.42936831 172.78564453 147.34057617 C170.89197808 147.33972813 168.99831065 147.34020849 167.10464478 147.34190369 C162.00637456 147.34275817 156.90831967 147.32522183 151.81009912 147.30418181 C146.46633679 147.28532297 141.12256856 147.28365736 135.77877808 147.28010559 C125.67856327 147.27081203 115.57844683 147.24623491 105.47827518 147.21605712 C91.81648894 147.17613101 78.15467547 147.16003649 64.49284554 147.14255047 C42.99515679 147.11441168 21.49767556 147.05462425 0 147 C0 98.49 0 49.98 0 0 Z " fill="#131418" transform="translate(1065,1066)"/>
<path d="M0 0 C8.37375 -0.061875 16.7475 -0.12375 25.375 -0.1875 C27.99872559 -0.21481201 30.62245117 -0.24212402 33.32568359 -0.27026367 C35.43326356 -0.27903538 37.54084866 -0.28667769 39.6484375 -0.29296875 C40.72005127 -0.30831665 41.79166504 -0.32366455 42.89575195 -0.33947754 C51.25501565 -0.34235146 59.78597523 0.53774256 66.5 6 C67.1290625 6.495 67.758125 6.99 68.40625 7.5 C70 9 70 9 72 12 C72 12.99 72 13.98 72 15 C72.66 15 73.32 15 74 15 C74.98884243 31.6784756 74.98884243 31.6784756 69 39 C65.53685755 42.55194098 62.91676052 43.54262693 58 44 C58 44.99 58 45.98 58 47 C59.2065625 47.0928125 59.2065625 47.0928125 60.4375 47.1875 C66.28363555 48.52082916 72.02365486 51.03735621 75.5 56.125 C79.21814975 63.25145369 79.49185839 73.12971791 77.12890625 80.84375 C72.64892563 89.42181125 66.35080444 93.29037042 57.3380127 96.17736816 C51.88200933 97.52196523 46.60749254 97.49422342 41.015625 97.390625 C39.96616699 97.38659668 38.91670898 97.38256836 37.83544922 97.37841797 C33.97345096 97.35773568 30.11170498 97.30189353 26.25 97.25 C17.5875 97.1675 8.925 97.085 0 97 C0 64.99 0 32.98 0 0 Z " fill="#F9F9F9" transform="translate(972,1334)"/>
<path d="M0 0 C0 0.66 0 1.32 0 2 C0.59039063 2.26039062 1.18078125 2.52078125 1.7890625 2.7890625 C9.30201197 6.90392882 14.49134559 16.10040738 17 24 C18.61197236 34.64214765 17.8782263 47.91559706 12.04296875 57.0703125 C6.79369402 63.77722229 1.22494367 69.2740861 -7 72 C-14.82036901 72.80352657 -22.60404373 73.09508381 -29 68 C-30.85305871 66.08977752 -32.38919468 64.13194822 -34 62 C-34.66 61.67 -35.32 61.34 -36 61 C-36 73.54 -36 86.08 -36 99 C-41.94 99 -47.88 99 -54 99 C-54 66 -54 33 -54 -1 C-48.72 -1 -43.44 -1 -38 -1 C-37 0 -37 0 -36.9375 3.5625 C-36.958125 4.696875 -36.97875 5.83125 -37 7 C-36.22076172 6.40251953 -36.22076172 6.40251953 -35.42578125 5.79296875 C-23.46089459 -3.29680651 -14.4182514 -5.25437361 0 0 Z " fill="#F3F3F3" transform="translate(906,1361)"/>
<path d="M0 0 C10.08265433 5.79388483 15.9723052 12.80849352 19.0625 24.125 C21.21538601 35.68907343 21.23932842 49.09050631 14.625 59.125 C9.99881089 65.23233906 4.60915703 71.57726128 -3.25 72.9375 C-11.36020211 73.45443923 -19.94196347 73.87412745 -26.5625 68.5 C-28.48171743 66.6700485 -30.37488426 64.81261574 -32.25 62.9375 C-32.25 75.1475 -32.25 87.3575 -32.25 99.9375 C-38.19 99.9375 -44.13 99.9375 -50.25 99.9375 C-50.25 67.2675 -50.25 34.5975 -50.25 0.9375 C-44.97 0.9375 -39.69 0.9375 -34.25 0.9375 C-34.25 3.9075 -34.25 6.8775 -34.25 9.9375 C-33.59 9.9375 -32.93 9.9375 -32.25 9.9375 C-31.99863281 9.34195312 -31.74726562 8.74640625 -31.48828125 8.1328125 C-30.08826116 5.65075796 -28.72811103 4.4855658 -26.4375 2.8125 C-25.77105469 2.31492187 -25.10460937 1.81734375 -24.41796875 1.3046875 C-16.90554985 -3.43287397 -8.03265919 -3.77423245 0 0 Z " fill="#F6F6F6" transform="translate(819.25,1360.0625)"/>
<path d="M0 0 C8.04375 -0.0825 16.0875 -0.165 24.375 -0.25 C26.89431152 -0.28641602 29.41362305 -0.32283203 32.00927734 -0.36035156 C34.0348221 -0.37204804 36.06037634 -0.38223758 38.0859375 -0.390625 C39.62858276 -0.4213208 39.62858276 -0.4213208 41.20239258 -0.45263672 C51.29390243 -0.45744793 58.97487749 2.32044842 66.3125 9.2734375 C73.02697834 16.14334357 74.49314349 22.1934034 74.50195312 31.74194336 C74.25982589 39.76974527 71.41701897 46.20331225 66.03125 52.1875 C55.6151924 61.8023224 43.95861419 62.32031091 30.375 62.125 C26.29125 62.08375 22.2075 62.0425 18 62 C18 73.55 18 85.1 18 97 C12.06 97 6.12 97 0 97 C0 64.99 0 32.98 0 0 Z " fill="#F9F9F9" transform="translate(497,1334)"/>
<path d="M0 0 C1.41398148 -0.03472305 2.82805336 -0.06592991 4.2421875 -0.09375 C4.91499756 -0.1153418 5.58780762 -0.13693359 6.28100586 -0.15917969 C15.12676225 -0.21543251 22.0316616 4.13811197 28.1796875 10.15625 C36.59547895 21.39824007 36.1796875 25.46861815 36.1796875 41.15625 C19.3496875 41.15625 2.5196875 41.15625 -14.8203125 41.15625 C-13.8303125 46.60125 -13.8303125 46.60125 -12.8203125 52.15625 C-11.3353125 52.65125 -11.3353125 52.65125 -9.8203125 53.15625 C-8.46662654 54.46891518 -7.13231654 55.80192325 -5.8203125 57.15625 C-1.1448801 59.4939662 5.10946931 58.67158365 10.1796875 58.15625 C13.69071783 56.73230359 16.50521955 54.83071795 19.1796875 52.15625 C21.87623604 52.08305379 24.54660208 52.06382463 27.2421875 52.09375 C28.38010742 52.10051758 28.38010742 52.10051758 29.54101562 52.10742188 C31.42060621 52.1192432 33.30015649 52.13717922 35.1796875 52.15625 C32.56786185 59.17475779 28.64038081 66.0995356 22.1796875 70.15625 C21.36564453 70.71119141 21.36564453 70.71119141 20.53515625 71.27734375 C12.1186344 76.07492721 0.1919985 75.52568015 -9.02734375 73.42578125 C-11.45482567 72.51221278 -13.59011237 71.47429391 -15.8203125 70.15625 C-16.44808594 69.82882812 -17.07585937 69.50140625 -17.72265625 69.1640625 C-25.54778981 64.47240693 -30.5057856 54.77623142 -32.8203125 46.15625 C-34.25221779 35.55327948 -34.13379461 24.13575008 -27.8203125 15.15625 C-22.43061731 8.09423817 -17.29681368 2.35112298 -8.3828125 0.40625 C-5.59187376 0.18735284 -2.79742704 0.11441419 0 0 Z " fill="#F7F7F7" transform="translate(1463.8203125,1358.84375)"/>
<path d="M0 0 C5.94 0 11.88 0 18 0 C18 12.54 18 25.08 18 38 C18.99 37.01 19.98 36.02 21 35 C21.66 35 22.32 35 23 35 C23 34.34 23 33.68 23 33 C30.57134396 27.23135699 37.65939387 26.02778935 47 27 C53.06919933 28.71498526 58.36652187 32.88553459 62 38 C65.31039284 44.99566309 65.39508273 51.1507964 65.29296875 58.8125 C65.28872391 60.02196289 65.28447906 61.23142578 65.28010559 62.47753906 C65.26339038 66.31859134 65.22575015 70.15910784 65.1875 74 C65.17244397 76.61327364 65.15875717 79.22655555 65.14648438 81.83984375 C65.1135101 88.22676712 65.06177618 94.6132929 65 101 C59.06 101 53.12 101 47 101 C46.99589111 99.48124268 46.99178223 97.96248535 46.98754883 96.39770508 C46.96576809 90.75982786 46.91148801 85.12264958 46.84741211 79.48510742 C46.82422311 77.04572247 46.80983432 74.60623726 46.80444336 72.16674805 C46.79516094 68.65870625 46.75418218 65.15224328 46.70703125 61.64453125 C46.7109639 60.55477493 46.71489655 59.46501862 46.71894836 58.34223938 C46.74392718 51.99956128 46.74392718 51.99956128 43.51831055 46.8347168 C42.68726807 46.22926025 41.85622559 45.62380371 41 45 C40.67 44.67 40.34 44.34 40 44 C31.8113123 43.02840723 31.8113123 43.02840723 24.5 46.0625 C18.7149397 52.85994585 17.40223768 57.55334949 17.390625 66.30859375 C17.37408875 67.27531509 17.35755249 68.24203644 17.34051514 69.23805237 C17.29220082 72.30460062 17.27070079 75.37065353 17.25 78.4375 C17.2218265 80.52541532 17.19189715 82.61330774 17.16015625 84.70117188 C17.08644611 89.80074045 17.0367702 94.90003671 17 100 C8.585 100.495 8.585 100.495 0 101 C0 67.67 0 34.34 0 0 Z " fill="#F4F4F4" transform="translate(1272,1331)"/>
<path d="M0 0 C5.94 0 11.88 0 18 0 C18.495 18.315 18.495 18.315 19 37 C21.97 34.69 24.94 32.38 28 30 C35.26216013 25.97987564 42.0493979 26.36910726 50 28 C50 28.66 50 29.32 50 30 C50.721875 30.04125 51.44375 30.0825 52.1875 30.125 C56.28189875 31.39881294 57.52448804 33.53428325 60 37 C60 37.66 60 38.32 60 39 C60.66 39 61.32 39 62 39 C63.71432497 42.72708992 64.24552013 45.61729034 64.22705078 49.70825195 C64.22689972 50.82903641 64.22674866 51.94982086 64.22659302 53.10456848 C64.21627045 54.3036937 64.20594788 55.50281891 64.1953125 56.73828125 C64.1924826 57.97418503 64.18965271 59.21008881 64.18673706 60.48344421 C64.17745218 63.75664997 64.15950633 67.02965644 64.1373291 70.30279541 C64.11680817 73.64780848 64.10789268 76.99283026 64.09765625 80.33789062 C64.07561791 86.8920148 64.04109903 93.44596875 64 100 C58.39 100 52.78 100 47 100 C46.9906543 98.5773584 46.98130859 97.1547168 46.97167969 95.68896484 C46.93174106 90.39958643 46.86597051 85.11078725 46.79248047 79.82177734 C46.76429348 77.53474379 46.74306769 75.24761323 46.72900391 72.96044922 C46.70754362 69.66844094 46.66087529 66.37759622 46.609375 63.0859375 C46.60814636 62.06696381 46.60691772 61.04799011 46.60565186 59.99813843 C46.48333973 54.04001382 45.99685165 50.52256203 42 46 C37.7255638 43.15037586 34.00938523 43.63012565 29 44 C24.97378828 44.89471371 22.68125937 46.82066244 20.08291626 50.02813721 C17.86800281 54.06123338 18.27562489 58.59203373 18.29296875 63.0859375 C18.27784744 64.14285797 18.26272614 65.19977844 18.24714661 66.28872681 C18.20429832 69.65103539 18.19543395 73.01244568 18.1875 76.375 C18.16435361 78.66018008 18.13898798 80.94533884 18.11132812 83.23046875 C18.04850342 88.82039182 18.0161458 94.40975508 18 100 C12.06 100 6.12 100 0 100 C0 67 0 34 0 0 Z " fill="#F6F6F6" transform="translate(583,1331)"/>
<path d="M0 0 C1.58206057 0.00667536 3.16410534 0.0186375 4.74609375 0.03515625 C5.55240234 0.03966797 6.35871094 0.04417969 7.18945312 0.04882812 C9.18753131 0.06065107 11.18557158 0.07858711 13.18359375 0.09765625 C13.18723938 0.69820831 13.19088501 1.29876038 13.19464111 1.91751099 C13.23651827 8.17977307 13.30590053 14.44130581 13.39111328 20.703125 C13.41930304 23.0386627 13.44052745 25.37429545 13.45458984 27.70996094 C13.47604621 31.07145784 13.52271281 34.43181432 13.57421875 37.79296875 C13.57544739 38.83381622 13.57667603 39.8746637 13.57794189 40.947052 C13.69793446 46.91401652 14.09127325 50.61209368 18.18359375 55.09765625 C21.21880769 56.10939423 23.38092454 56.26339139 26.55859375 56.28515625 C27.49445313 56.29933594 28.4303125 56.31351563 29.39453125 56.328125 C32.39280341 56.08036862 34.51225458 55.47081832 37.18359375 54.09765625 C38.49427708 51.65476997 38.49427708 51.65476997 39.18359375 49.09765625 C39.67859375 48.10765625 39.67859375 48.10765625 40.18359375 47.09765625 C40.30164552 45.58688055 40.36055824 44.07126794 40.38891602 42.55615234 C40.40886124 41.61532806 40.42880646 40.67450378 40.44935608 39.70516968 C40.46606857 38.68742462 40.48278107 37.66967957 40.5 36.62109375 C40.5207811 35.58070953 40.54156219 34.54032532 40.56297302 33.46841431 C40.62849247 30.13656376 40.68736467 26.80463275 40.74609375 23.47265625 C40.78927669 21.21743951 40.8328909 18.96223098 40.87695312 16.70703125 C40.98417633 11.17065592 41.08543704 5.63419945 41.18359375 0.09765625 C47.12359375 0.09765625 53.06359375 0.09765625 59.18359375 0.09765625 C59.18359375 23.52765625 59.18359375 46.95765625 59.18359375 71.09765625 C53.57359375 71.09765625 47.96359375 71.09765625 42.18359375 71.09765625 C42.18359375 68.12765625 42.18359375 65.15765625 42.18359375 62.09765625 C41.64992188 62.5565625 41.11625 63.01546875 40.56640625 63.48828125 C32.6697365 69.99142105 25.22833897 73.95413737 14.78515625 73.46875 C7.23498358 72.39177342 3.2291632 68.5696843 -1.37109375 62.70703125 C-5.30133228 55.61135736 -5.09982145 48.08796974 -5.046875 40.1953125 C-5.04641678 39.07700546 -5.04595856 37.95869843 -5.04548645 36.8065033 C-5.04247905 34.45749848 -5.0346384 32.10849538 -5.0222168 29.75952148 C-5.00384213 26.14755275 -5.00170813 22.53583895 -5.00195312 18.92382812 C-4.99704188 16.63932068 -4.99121529 14.35481498 -4.984375 12.0703125 C-4.98326218 10.98500748 -4.98214935 9.89970245 -4.98100281 8.7815094 C-4.97462296 7.78634811 -4.9682431 6.79118683 -4.96166992 5.76586914 C-4.95595222 4.44638023 -4.95595222 4.44638023 -4.95011902 3.10023499 C-4.70650221 -0.54834588 -3.83639576 0.09816775 0 0 Z " fill="#F2F2F2" transform="translate(1120.81640625,1359.90234375)"/>
<path d="M0 0 C5.56789423 3.26731375 9.43134778 6.9173126 11.77734375 13.04296875 C12.62695481 16.57894453 12.89953717 19.84392398 12.89086914 23.47583008 C12.89075584 25.06691338 12.89075584 25.06691338 12.89064026 26.69013977 C12.88547897 27.82364365 12.88031769 28.95714752 12.875 30.125 C12.87358505 31.29431564 12.8721701 32.46363129 12.87071228 33.66838074 C12.86512168 37.39743626 12.85257084 41.12643142 12.83984375 44.85546875 C12.83482754 47.38606684 12.83026484 49.91666587 12.82617188 52.44726562 C12.81515531 58.64585654 12.79789707 64.84440241 12.77734375 71.04296875 C7.16734375 71.04296875 1.55734375 71.04296875 -4.22265625 71.04296875 C-4.23723877 69.65062012 -4.25182129 68.25827148 -4.2668457 66.82373047 C-4.32492169 61.64622625 -4.40215467 56.46915268 -4.48510742 51.29199219 C-4.51831291 49.05345664 -4.54635841 46.81483826 -4.5690918 44.57617188 C-4.6027177 41.35380836 -4.65503897 38.13220101 -4.7109375 34.91015625 C-4.71732742 33.91305634 -4.72371735 32.91595642 -4.7303009 31.88864136 C-4.87035048 25.23416667 -5.75551142 20.72158314 -10.41015625 15.66796875 C-14.08615802 13.54405662 -17.12882538 13.41254993 -21.22265625 14.04296875 C-25.87812828 15.43961036 -28.78417846 16.91501283 -31.40637207 21.08868408 C-33.13437314 25.22573106 -32.82670517 29.7117061 -32.83203125 34.12890625 C-32.8485675 35.18582672 -32.86510376 36.24274719 -32.88214111 37.33169556 C-32.93056657 40.69384607 -32.95198068 44.0555444 -32.97265625 47.41796875 C-33.00082038 49.70314768 -33.03074842 51.9883056 -33.0625 54.2734375 C-33.13632461 59.86324403 -33.18593298 65.45280033 -33.22265625 71.04296875 C-39.16265625 71.04296875 -45.10265625 71.04296875 -51.22265625 71.04296875 C-51.22265625 47.94296875 -51.22265625 24.84296875 -51.22265625 1.04296875 C-45.61265625 1.04296875 -40.00265625 1.04296875 -34.22265625 1.04296875 C-33.89265625 3.35296875 -33.56265625 5.66296875 -33.22265625 8.04296875 C-32.20945312 7.21152344 -32.20945312 7.21152344 -31.17578125 6.36328125 C-30.28375 5.63882812 -29.39171875 4.914375 -28.47265625 4.16796875 C-27.5909375 3.44867187 -26.70921875 2.729375 -25.80078125 1.98828125 C-18.45045268 -3.55787576 -8.41726779 -3.79043983 0 0 Z " fill="#F6F6F6" transform="translate(1405.22265625,1359.95703125)"/>
<path d="M0 0 C4.02900349 3.34637306 7.31801756 6.73290604 9.74609375 11.38671875 C9.83984375 14.06640625 9.83984375 14.06640625 9.74609375 16.38671875 C8.01752916 16.86805285 6.28821304 17.34668846 4.55859375 17.82421875 C3.59566406 18.09105469 2.63273437 18.35789062 1.640625 18.6328125 C-0.98054322 19.31551893 -3.59284125 19.8856407 -6.25390625 20.38671875 C-9.25390625 15.63671875 -9.25390625 15.63671875 -9.25390625 13.38671875 C-10.05828125 13.07734375 -10.86265625 12.76796875 -11.69140625 12.44921875 C-14.25390625 11.38671875 -14.25390625 11.38671875 -15.25390625 10.38671875 C-20.02760197 9.97022181 -24.63295879 9.75243496 -29.12890625 11.51171875 C-34.71242208 16.43835036 -37.72874481 21.03064282 -38.625 28.46484375 C-38.78574855 36.14295107 -37.81588793 42.05134701 -33.25390625 48.38671875 C-32.26390625 49.04671875 -31.27390625 49.70671875 -30.25390625 50.38671875 C-30.25390625 51.04671875 -30.25390625 51.70671875 -30.25390625 52.38671875 C-28.19206992 52.46822619 -26.12929276 52.52613815 -24.06640625 52.57421875 C-22.34357422 52.62642578 -22.34357422 52.62642578 -20.5859375 52.6796875 C-16.95821418 52.36072003 -15.22621068 51.39817166 -12.25390625 49.38671875 C-11.59390625 49.38671875 -10.93390625 49.38671875 -10.25390625 49.38671875 C-9.04762617 47.05457727 -8.08843245 44.89029736 -7.25390625 42.38671875 C-1.13905598 42.28965763 4.67912676 42.61631024 10.74609375 43.38671875 C9.2903553 50.22868948 6.34045949 56.49404194 0.78515625 60.96484375 C-1.18629147 62.21871472 -3.17240833 63.32719877 -5.25390625 64.38671875 C-6.30578125 64.96421875 -7.35765625 65.54171875 -8.44140625 66.13671875 C-16.31756658 69.63723445 -26.73981292 69.64805787 -35.00390625 67.44921875 C-40.80699722 65.13013964 -45.0424688 60.88215116 -49.25390625 56.38671875 C-49.97578125 55.66355469 -50.69765625 54.94039062 -51.44140625 54.1953125 C-58.80297385 45.18629731 -57.20506535 32.38087728 -56.25390625 21.38671875 C-55.94636313 19.71510094 -55.62063573 18.04635677 -55.25390625 16.38671875 C-54.59390625 16.38671875 -53.93390625 16.38671875 -53.25390625 16.38671875 C-53.21265625 15.72671875 -53.17140625 15.06671875 -53.12890625 14.38671875 C-51.18076759 7.70738619 -45.88792667 2.25320335 -40.25390625 -1.61328125 C-27.39701903 -7.1498507 -11.77889105 -8.43099134 0 0 Z " fill="#F6F6F6" transform="translate(1250.25390625,1364.61328125)"/>
<path d="M0 0 C5.61 0 11.22 0 17 0 C17 33.33 17 66.66 17 101 C11.06 100.67 5.12 100.34 -1 100 C-1.02258813 87.69989249 -1.04093666 75.39979874 -1.05181217 63.09967518 C-1.05703174 57.38830101 -1.06411264 51.67694176 -1.07543945 45.96557617 C-1.08630115 40.45427491 -1.09228382 34.942988 -1.09487724 29.43167686 C-1.09672556 27.3285366 -1.10033481 25.22539712 -1.10573006 23.12226295 C-1.11298399 20.17760136 -1.11398909 17.23299917 -1.11352539 14.28833008 C-1.11712067 13.4179863 -1.12071594 12.54764252 -1.12442017 11.65092468 C-1.1230455 10.84470673 -1.12167084 10.03848877 -1.12025452 9.20783997 C-1.12117631 8.51188626 -1.1220981 7.81593256 -1.12304783 7.09888935 C-1 5 -1 5 0 0 Z " fill="#EFEFEF" transform="translate(700,1331)"/>
<path d="M0 0 C0.89203125 0.01804687 1.7840625 0.03609375 2.703125 0.0546875 C3.71632813 0.08949219 3.71632813 0.08949219 4.75 0.125 C4.77705308 2.54174224 4.79686438 4.9581794 4.8125 7.375 C4.82087891 8.05691406 4.82925781 8.73882813 4.83789062 9.44140625 C4.85428392 12.81842554 4.80628768 15.89791639 3.75 19.125 C2.42935547 19.18107422 2.42935547 19.18107422 1.08203125 19.23828125 C-0.66013672 19.33689453 -0.66013672 19.33689453 -2.4375 19.4375 C-3.58605469 19.49550781 -4.73460937 19.55351563 -5.91796875 19.61328125 C-9.57990962 20.17566607 -11.3845536 20.78929999 -14.25 23.125 C-18.3563905 28.92085784 -18.85009053 33.43367783 -18.859375 40.43359375 C-18.87591125 41.40031509 -18.89244751 42.36703644 -18.90948486 43.36305237 C-18.95779918 46.42960062 -18.97929921 49.49565353 -19 52.5625 C-19.0281735 54.65041532 -19.05810285 56.73830774 -19.08984375 58.82617188 C-19.16355389 63.92574045 -19.2132298 69.02503671 -19.25 74.125 C-25.19 74.125 -31.13 74.125 -37.25 74.125 C-37.25 50.695 -37.25 27.265 -37.25 3.125 C-31.97 3.125 -26.69 3.125 -21.25 3.125 C-21.25 6.425 -21.25 9.725 -21.25 13.125 C-20.59 13.125 -19.93 13.125 -19.25 13.125 C-19.085 12.42375 -18.92 11.7225 -18.75 11 C-15.23882452 4.27024699 -7.48910787 -0.19708179 0 0 Z " fill="#F5F5F5" transform="translate(1101.25,1357.875)"/>
<path d="M0 0 C0 5.28 0 10.56 0 16 C-1.98 16.12375 -1.98 16.12375 -4 16.25 C-9.84188975 16.90421794 -15.03715165 18.64458198 -18.875 23.25 C-19.24625 23.8275 -19.6175 24.405 -20 25 C-20.66 25 -21.32 25 -22 25 C-22.92347857 30.570449 -23.20687526 36.01148101 -23.31640625 41.65234375 C-23.33718735 42.55247696 -23.35796844 43.45261017 -23.37937927 44.38002014 C-23.44433837 47.23244187 -23.50350828 50.08494925 -23.5625 52.9375 C-23.60573633 54.88086794 -23.64935219 56.82422748 -23.69335938 58.76757812 C-23.8006726 63.51163257 -23.90014361 68.25575939 -24 73 C-29.94 73 -35.88 73 -42 73 C-42 49.24 -42 25.48 -42 1 C-36.06 1 -30.12 1 -24 1 C-24 4.63 -24 8.26 -24 12 C-23.34 12 -22.68 12 -22 12 C-21.88785156 11.40445312 -21.77570313 10.80890625 -21.66015625 10.1953125 C-20.54189732 6.47660528 -18.07939708 4.26622296 -15 2 C-9.93982924 -0.17157126 -5.57272764 0 0 0 Z " fill="#F4F3F4" transform="translate(1555,1359)"/>
<path d="M0 0 C0.66 0.33 1.32 0.66 2 1 C2 1.66 2 2.32 2 3 C2.7425 3.2475 3.485 3.495 4.25 3.75 C8.77928144 5.80876429 10.5268397 8.0536794 12.75 12.5 C15.39540156 20.48054102 14.94048916 27.8227134 11.4375 35.4375 C8.7448439 40.20431346 6.3509732 44.1933061 1 46 C-3.91862799 46.85104326 -8.54653542 47.08653431 -13.1875 45.03125 C-18.50996394 41.08528535 -20.59441897 35.29164844 -22 29 C-22.94294247 21.1135721 -22.1430084 14.27418775 -17.3828125 7.80078125 C-11.90230187 1.25004215 -8.47942295 -0.41029466 0 0 Z " fill="#080808" transform="translate(891,1372)"/>
<path d="M0 0 C5.69402552 2.34459874 8.11337915 7.17752613 10.42578125 12.65234375 C12.70769849 20.62150088 11.97431093 29.00003751 8.1875 36.3125 C4.60261957 40.55775314 0.84863515 43.88785077 -4.75 44.78125 C-13.05344307 44.86597901 -13.05344307 44.86597901 -16.8125 42.125 C-17.8025 40.7328125 -17.8025 40.7328125 -18.8125 39.3125 C-19.92625 38.1059375 -19.92625 38.1059375 -21.0625 36.875 C-25.25571207 30.73493947 -24.50348915 21.45010387 -23.8125 14.3125 C-19.89172988 1.51929748 -12.68282539 -2.28706687 0 0 Z " fill="#070707" transform="translate(809.8125,1373.6875)"/>
<path d="M0 0 C5.61 0 11.22 0 17 0 C17 23.43 17 46.86 17 71 C11.06 71 5.12 71 -1 71 C-1.0225528 61.89040511 -1.04091611 52.78082863 -1.05181217 43.6712122 C-1.05704056 39.44168629 -1.0641374 35.2121804 -1.07543945 30.98266602 C-1.08626991 26.90431457 -1.09227717 22.82598243 -1.09487724 18.74761772 C-1.09673121 17.18822361 -1.10035127 15.6288306 -1.10573006 14.06944466 C-1.11294262 11.89270838 -1.11399085 9.71605286 -1.11352539 7.53930664 C-1.115746 6.29798477 -1.11796661 5.0566629 -1.12025452 3.77772522 C-1 1 -1 1 0 0 Z " fill="#ECECED" transform="translate(665,1360)"/>
<path d="M0 0 C5.61 0 11.22 0 17 0 C17.02255261 9.23997871 17.04091601 18.47993928 17.05181217 27.71993923 C17.05704061 32.00999915 17.06413753 36.30003933 17.07543945 40.59008789 C17.08626975 44.726794 17.09227714 48.86348108 17.09487724 53.00020027 C17.09673124 54.58192304 17.10035136 56.16364471 17.10573006 57.74535942 C17.1129424 59.95322838 17.11399086 62.16101773 17.11352539 64.36889648 C17.115746 65.62798325 17.11796661 66.88707001 17.12025452 68.18431091 C17 71 17 71 16 72 C10.72 72 5.44 72 0 72 C0 48.24 0 24.48 0 0 Z " fill="#F1F1F1" transform="translate(735,1360)"/>
<path d="M0 0 C4.66125 -0.103125 9.3225 -0.20625 14.125 -0.3125 C15.58437988 -0.35802002 17.04375977 -0.40354004 18.54736328 -0.45043945 C29.23030589 -0.5651904 29.23030589 -0.5651904 32.8671875 2.39453125 C37.23155068 7.72608847 36.42997927 13.3393777 36 20 C34.71624272 24.30436265 33.24310258 26.06505574 29.5 28.3125 C25.22535128 30.37349135 22.35994254 31.12353559 17.67578125 31.09765625 C16.74934814 31.09515869 15.82291504 31.09266113 14.8684082 31.09008789 C13.6949585 31.08098389 12.52150879 31.07187988 11.3125 31.0625 C7.579375 31.041875 3.84625 31.02125 0 31 C0 20.77 0 10.54 0 0 Z " fill="#131418" transform="translate(515,1350)"/>
<path d="M0 0 C4.32392847 -0.06903966 8.6459293 -0.12871715 12.9699707 -0.16479492 C14.43943782 -0.17984066 15.90886034 -0.20028238 17.37817383 -0.22631836 C19.4957177 -0.26288955 21.61266565 -0.27976801 23.73046875 -0.29296875 C25.63928833 -0.31653442 25.63928833 -0.31653442 27.58666992 -0.34057617 C31.26827589 0.0267681 33.09417268 0.75334826 36 3 C39.36318461 8.56665039 40.25823334 14.58003776 39 21 C36.89834313 23.93075087 34.20981028 25.39509486 31 27 C28.67583704 27.08586809 26.34916693 27.10711043 24.0234375 27.09765625 C23.33819 27.0962413 22.6529425 27.09482635 21.94692993 27.09336853 C19.75624239 27.08776675 17.5656567 27.07521406 15.375 27.0625 C13.89062648 27.05748522 12.40625135 27.05292228 10.921875 27.04882812 C7.2811791 27.03864721 3.64070369 27.01907237 0 27 C0 18.09 0 9.18 0 0 Z " fill="#080708" transform="translate(991,1388)"/>
<path d="M0 0 C4.31403682 -0.16279384 8.62186248 -0.28132725 12.9375 -0.375 C14.14986328 -0.42527344 15.36222656 -0.47554687 16.61132812 -0.52734375 C23.72878212 -0.64307471 28.71669648 -0.14397648 34.42016602 4.34228516 C36 6 36 6 37.125 8.7109375 C37.08375 9.59007812 37.0425 10.46921875 37 11.375 C37 12.24898437 37 13.12296875 37 14.0234375 C35.38821837 18.82100626 33.28040965 22.18405279 29 25 C24.00214612 25.96873721 19.11909204 25.75921836 14.0625 25.5 C12.69737021 25.45981576 11.33212647 25.42332359 9.96679688 25.390625 C6.64330828 25.29667479 3.32128519 25.15319189 0 25 C0 16.75 0 8.5 0 0 Z " fill="#131418" transform="translate(990,1349)"/>
<path d="M0 0 C2.90590735 2.10678283 4.69433162 3.68730473 6.5 6.8125 C6.5 9.4525 6.5 12.0925 6.5 14.8125 C-4.39 14.8125 -15.28 14.8125 -26.5 14.8125 C-27.5 10.8125 -27.5 10.8125 -26.625 7.9375 C-20.20270208 -1.50705577 -10.60918578 -3.59954518 0 0 Z " fill="#131418" transform="translate(1475.5,1374.1875)"/>
<path d="M0 0 C1.71703125 0.01933594 1.71703125 0.01933594 3.46875 0.0390625 C4.6134375 0.02617188 5.758125 0.01328125 6.9375 0 C9.96875 0.6640625 9.96875 0.6640625 11.85546875 2.94921875 C13.47979442 6.91029363 13.3080414 9.38899084 12.96875 13.6640625 C11.94921875 15.91015625 11.94921875 15.91015625 10.96875 17.6640625 C8.50976345 17.74483213 6.05341258 17.80443393 3.59375 17.8515625 C2.89507813 17.87669922 2.19640625 17.90183594 1.4765625 17.92773438 C-0.5546875 17.95703125 -0.5546875 17.95703125 -4.03125 17.6640625 C-6.07961083 14.59152125 -6.32581493 13.79237965 -6.34375 10.2890625 C-6.36050781 9.53882813 -6.37726562 8.78859375 -6.39453125 8.015625 C-5.70208235 3.53332139 -4.58660215 1.00479686 0 0 Z " fill="#EEEDEE" transform="translate(669.03125,1330.3359375)"/>
<path d="M0 0 C1.8871875 0.00773437 1.8871875 0.00773437 3.8125 0.015625 C5.070625 0.01046875 6.32875 0.0053125 7.625 0 C10.8125 0.265625 10.8125 0.265625 12.8125 2.265625 C13.04296875 4.7265625 13.04296875 4.7265625 13 7.640625 C12.99355469 8.59710937 12.98710938 9.55359375 12.98046875 10.5390625 C12.83307959 12.93156568 12.49069373 14.97604297 11.8125 17.265625 C9.16659986 17.29247179 6.52096904 17.31238857 3.875 17.328125 C3.12025391 17.33650391 2.36550781 17.34488281 1.58789062 17.35351562 C-0.33744313 17.36214941 -2.26285581 17.31786833 -4.1875 17.265625 C-6.12091947 15.33220553 -5.36199133 11.89083379 -5.375 9.328125 C-5.38917969 8.06097656 -5.40335938 6.79382812 -5.41796875 5.48828125 C-5.10357557 1.09210548 -4.39133249 0.36594437 0 0 Z " fill="#F3F2F2" transform="translate(740.1875,1330.734375)"/>
<path d="M0 0 C0.66 0.33 1.32 0.66 2 1 C-1.96 4.96 -5.92 8.92 -10 13 C-10 8.83248505 -7.76127698 6.85829482 -5 4 C-3.36927384 2.62294236 -1.7133562 1.27277889 0 0 Z " fill="#CECDCE" transform="translate(1210,1363)"/>
<path d="M0 0 C2.75383923 1.37691962 3.51483101 3.36720042 5 6 C1.7 5.34 -1.6 4.68 -5 4 C-5 3.34 -5 2.68 -5 2 C-2.625 0.9375 -2.625 0.9375 0 0 Z " fill="#3C3C3E" transform="translate(1290,1042)"/>
<path d="M0 0 C2.93200474 2.85276137 5.64315404 5.65079784 8 9 C7.67 9.66 7.34 10.32 7 11 C4.35247996 8.42215154 2.05567935 6.08351902 0 3 C0 2.01 0 1.02 0 0 Z " fill="#292627" transform="translate(1288,924)"/>
<path d="M0 0 C2.92996359 0.62784934 5.51755783 1.28797092 8 3 C8.75 5.625 8.75 5.625 9 8 C7.68121422 7.23997083 6.3701316 6.46656347 5.0625 5.6875 C4.33160156 5.25824219 3.60070313 4.82898437 2.84765625 4.38671875 C1 3 1 3 0 0 Z " fill="#C7C2BF" transform="translate(1440,1421)"/>
<path d="M0 0 C4.6875 0.78125 4.6875 0.78125 9.375 1.5625 C10.674375 1.7790625 10.674375 1.7790625 12 2 C12 2.33 12 2.66 12 3 C10.95199219 3.09087891 10.95199219 3.09087891 9.8828125 3.18359375 C8.97273438 3.26738281 8.06265625 3.35117188 7.125 3.4375 C6.22007813 3.51871094 5.31515625 3.59992188 4.3828125 3.68359375 C1.98889139 3.86989285 1.98889139 3.86989285 0 5 C0 3.35 0 1.7 0 0 Z " fill="#282729" transform="translate(1481,1408)"/>
</svg>
