<?xml version="1.0" encoding="UTF-8"?>
<svg version="1.1" xmlns="http://www.w3.org/2000/svg" width="2048" height="2048">
<path d="M0 0 C675.84 0 1351.68 0 2048 0 C2048 675.84 2048 1351.68 2048 2048 C1372.16 2048 696.32 2048 0 2048 C0 1372.16 0 696.32 0 0 Z " fill="#FEFEFE" transform="translate(0,0)"/>
<path d="M0 0 C296.46464646 0 296.46464646 0 352.734375 55.70703125 C383.78685117 87.13427868 395.34619549 131.28558564 395.4375 174.3125 C395.44648819 175.71615311 395.44648819 175.71615311 395.45565796 177.14816284 C395.55284287 199.98112087 390.88547128 220.2814656 384 242 C383.34 242 382.68 242 382 242 C381.34 244.97 380.68 247.94 380 251 C381.10459611 250.99585193 381.10459611 250.99585193 382.2315073 250.99162006 C400.25684072 250.92499337 418.28214915 250.87554269 436.30757999 250.84456348 C445.02500428 250.82917905 453.74234573 250.80825347 462.4597168 250.77368164 C470.06918525 250.74351831 477.67859363 250.72436405 485.28812021 250.71773452 C489.30695862 250.71386719 493.32562537 250.704961 497.34440804 250.68280983 C520.40172878 250.56078145 542.77555332 251.19978829 565 258 C566.06863281 258.28488281 567.13726563 258.56976562 568.23828125 258.86328125 C580.28820245 262.2031251 592.52885984 267.71275236 602 276 C602 276.66 602 277.32 602 278 C602.82564453 278.34224609 602.82564453 278.34224609 603.66796875 278.69140625 C620.74520257 288.27410864 628.01189172 309.39491195 633 327 C633.1750708 327.57032959 633.3501416 328.14065918 633.53051758 328.72827148 C637.13555382 346.17229761 635.33226627 367.89768036 628 384 C627.57074219 385.01449219 627.14148437 386.02898437 626.69921875 387.07421875 C618.31189307 405.35148546 601.99877808 419.66174255 584 428 C580.89962474 429.03744861 578.25086734 429.59364158 575 430 C575 430.66 575 431.32 575 432 C576.1653125 432.12246094 577.330625 432.24492188 578.53125 432.37109375 C599.02676246 434.96004798 621.68324699 446.74411635 635.00390625 462.51953125 C636 464 636 464 636 466 C636.66 466 637.32 466 638 466 C646.84387467 477.87315588 653.31233162 492.46591639 656 507 C656.18433594 507.99644531 656.36867188 508.99289062 656.55859375 510.01953125 C657.33200793 515.68532933 657.18435767 521.41853013 657.1875 527.125 C657.19974609 528.27226563 657.21199219 529.41953125 657.22460938 530.6015625 C657.26867929 556.69095049 648.64432741 580.69575329 631 600 C630.28070312 600.78890625 629.56140625 601.5778125 628.8203125 602.390625 C611.95020311 620.04120208 590.66707298 627.82859577 567.625 633.8125 C566.84165283 634.01963623 566.05830566 634.22677246 565.2512207 634.44018555 C551.58587646 637.82761497 537.40568508 637.13784761 523.43261719 637.11352539 C521.15501405 637.11324297 518.87741082 637.11340233 516.59980774 637.1139679 C510.44574789 637.11425372 504.2917077 637.10839169 498.1376524 637.10139394 C491.69546802 637.09512467 485.25328315 637.09455378 478.81109619 637.09336853 C468.00768658 637.09061782 457.20428498 637.08438 446.40087891 637.07543945 C435.27880896 637.06624483 424.15674096 637.05917405 413.03466797 637.05493164 C412.34782467 637.05466892 411.66098138 637.05440619 410.95332465 637.05413551 C407.50725181 637.05283037 404.06117896 637.05156668 400.61510611 637.05032361 C372.07673256 637.03997562 343.53836656 637.022304 315 637 C314.70240481 602.10303449 314.4733558 567.20635879 314.33615072 532.30839831 C314.31989165 528.18785591 314.30306545 524.06731601 314.28588867 519.94677734 C314.28247864 519.12645676 314.2790686 518.30613619 314.27555523 517.46095741 C314.21899663 504.18049461 314.11650361 490.9007638 313.99701365 477.62073517 C313.87541652 463.99279267 313.80323074 450.36523335 313.77684957 436.73677063 C313.75901606 428.32764032 313.70271389 419.92057883 313.59708593 411.5120855 C313.5283319 405.74493371 313.50760496 399.97885023 313.52448209 394.21131843 C313.53280856 390.88261787 313.51302147 387.56043634 313.45032883 384.2318821 C313.10132956 364.74781124 313.10132956 364.74781124 316.26007676 360.17638016 C319.69029538 356.94416402 323.55508201 355.49753021 328 354 C329.80920529 353.05363166 331.60488274 352.08010586 333.375 351.0625 C334.24640625 350.59714844 335.1178125 350.13179687 336.015625 349.65234375 C340.46376146 347.18956662 344.80012771 344.54569264 349.13818359 341.89477539 C353.8983704 339 353.8983704 339 355 339 C355 364.41 355 389.82 355 416 C385.61532058 415.93839549 385.61532058 415.93839549 416.23046875 415.83984375 C428.72802531 415.79142168 441.22550203 415.74693194 453.72314453 415.72900391 C462.82800273 415.71592402 471.93269708 415.68879944 481.03746295 415.64538693 C485.85039405 415.62291352 490.66312415 415.60708074 495.47611237 415.60811615 C539.93836336 416.10994839 539.93836336 416.10994839 577.5625 394.6875 C580.11339439 392.07802178 580.11339439 392.07802178 582 389 C582.66 389 583.32 389 584 389 C584.15855469 388.44054687 584.31710937 387.88109375 584.48046875 387.3046875 C584.71378906 386.50289062 584.94710937 385.70109375 585.1875 384.875 C585.455625 383.94429687 585.72375 383.01359375 586 382.0546875 C587 379 587 379 588.3125 376.1328125 C594.58129568 361.84993144 594.51714505 342.65071049 589.3203125 327.96875 C582.63287876 312.93191673 573.20584693 304.30803276 558.4375 297.3125 C555.02537787 296.00968973 551.59678345 294.84126229 548.11328125 293.74609375 C546 293 546 293 544.23046875 291.97265625 C538.80749612 289.6078223 532.19936074 289.86705846 526.37892151 289.81245422 C525.65564743 289.80454414 524.93237336 289.79663406 524.18718189 289.78848428 C521.78699836 289.76361551 519.38681789 289.74558017 516.98657227 289.7277832 C515.25617221 289.71167825 513.5257747 289.69529829 511.79537964 289.67866516 C496.05583171 289.53453916 480.31552703 289.45900749 464.57545567 289.39974689 C452.9510794 289.35512322 441.32787774 289.27782796 429.70402676 289.15816242 C421.51612866 289.07671799 413.32855269 289.03360459 405.14026684 289.01844472 C400.25510932 289.00829116 395.37143773 288.98109453 390.48672676 288.91213417 C385.89209438 288.84797193 381.29969402 288.83136573 376.70467758 288.85062981 C375.02322503 288.84947934 373.34168061 288.83132228 371.66063118 288.794487 C362.31903978 288.44857864 362.31903978 288.44857864 354.03440666 292.21126366 C351.77505537 294.70243898 349.8740235 297.21342513 348 300 C346.35353315 301.68662458 344.68816933 303.35511706 343 305 C342.48824219 305.556875 341.97648437 306.11375 341.44921875 306.6875 C332.32310781 316.38032875 321.27617186 323.53294874 309.6875 329.9375 C308.47078613 330.61002808 308.47078613 330.61002808 307.22949219 331.29614258 C302.36109593 333.91465981 297.4406341 336.13201404 292.28027344 338.11376953 C290.01145883 338.99554651 287.78983269 339.95638813 285.5625 340.9375 C270.89867266 346.72105923 255.62893527 349.02993235 240.03686523 350.69042969 C237.93867789 350.90243553 237.93867789 350.90243553 236 352 C233.48628782 352.23838396 230.99640346 352.42080511 228.47669983 352.55540466 C227.3373439 352.61863612 227.3373439 352.61863612 226.17497069 352.68314499 C217.90681729 353.1073118 209.64969423 353.13331569 201.37280273 353.11352539 C199.65862817 353.11321807 197.94445348 353.11335423 196.23027897 353.11389065 C191.69596066 353.11411371 187.16166947 353.10837553 182.62735748 353.10128021 C178.35122098 353.09552746 174.07509062 353.09531398 169.7989502 353.09460449 C157.34512996 353.08938549 144.89131462 353.07542423 132.4375 353.0625 C104.573125 353.041875 76.70875 353.02125 48 353 C48 446.72 48 540.44 48 637 C32.16 637 16.32 637 0 637 C0 426.79 0 216.58 0 0 Z " fill="#020302" transform="translate(710,614)"/>
<path d="M0 0 C27.555 -0.061875 55.11 -0.12375 83.5 -0.1875 C96.48504883 -0.22846802 96.48504883 -0.22846802 109.73242188 -0.27026367 C120.41503906 -0.28381348 120.41503906 -0.28381348 125.43762207 -0.28633118 C128.89829441 -0.28909309 132.35882455 -0.30020079 135.81945801 -0.31672668 C160.11935096 -0.42760673 184.19780896 -0.46869949 207.75 6.375 C208.78125 6.6534375 209.8125 6.931875 210.875 7.21875 C221.05619491 10.05822898 230.68222869 14.02906172 239.9375 19.125 C240.55689453 19.45886719 241.17628906 19.79273438 241.81445312 20.13671875 C243.55040021 21.07756148 245.275582 22.03818926 247 23 C247.97066406 23.53367187 248.94132813 24.06734375 249.94140625 24.6171875 C250.62074219 25.07351563 251.30007813 25.52984375 252 26 C252 26.66 252 27.32 252 28 C252.886875 28.20625 253.77375 28.4125 254.6875 28.625 C258.12366139 30.05133114 259.5736494 31.510722 261.796875 34.4375 C263.10013215 36.19946183 263.10013215 36.19946183 265.3125 38.3125 C266.199375 39.199375 267.08625 40.08625 268 41 C268.56332031 41.54269531 269.12664062 42.08539062 269.70703125 42.64453125 C281.36621338 54.68364599 288.08562168 70.23023123 293 86 C293.58065902 87.5634958 294.16343774 89.12620927 294.75 90.6875 C298.18617804 101.3779849 298.33316296 112.81621584 298.25 123.9375 C298.24623352 124.60575806 298.24246704 125.27401611 298.23858643 125.96252441 C298.10993262 145.59125371 296.98152357 163.510719 290 182 C289.608125 183.09441406 289.21625 184.18882812 288.8125 185.31640625 C277.16572725 215.6869838 253.10755264 236.01862269 224 249 C218.49359147 251.14336301 212.87862051 252.88142178 207.17382812 254.41259766 C205.46254551 254.87501297 203.76687967 255.39523773 202.07881165 255.93629456 C180.37165912 262.08662281 155.94064088 260.41031473 133.61455536 260.30384064 C129.36066611 260.28643805 125.10683055 260.2859344 120.85290527 260.28381348 C108.50607162 260.26822564 96.1592824 260.22634257 83.8125 260.1875 C56.154375 260.125625 28.49625 260.06375 0 260 C0 174.2 0 88.4 0 0 Z " fill="#FDFDFD" transform="translate(758,660)"/>
<path d="M0 0 C46.50970149 -0.20151517 46.50970149 -0.20151517 66.109375 -0.24414062 C79.60328758 -0.27372424 93.09704321 -0.30836266 106.59082031 -0.37719727 C116.42148973 -0.42732131 126.25203092 -0.459359 136.08282459 -0.47044247 C141.27934785 -0.47691253 146.47550456 -0.49191904 151.67190933 -0.52865028 C205.39767329 -0.89322987 205.39767329 -0.89322987 228.5 13.1875 C229.4580957 13.77059937 229.4580957 13.77059937 230.43554688 14.36547852 C246.32365413 24.29954557 255.42306888 37.91505683 260 56 C260.45777792 61.44737482 260.43976206 66.91036651 260.4375 72.375 C260.43860275 73.5206694 260.43860275 73.5206694 260.43972778 74.68948364 C260.38086078 97.88216785 254.0045566 112.95774351 237.4453125 129.55859375 C231.06495696 135.34417038 222.71654057 138.23453302 214.75 141.125 C214.09604248 141.36661865 213.44208496 141.6082373 212.76831055 141.85717773 C199.38747886 146.54874049 186.79937806 147.42936831 172.78564453 147.34057617 C170.89197808 147.33972813 168.99831065 147.34020849 167.10464478 147.34190369 C162.00637456 147.34275817 156.90831967 147.32522183 151.81009912 147.30418181 C146.46633679 147.28532297 141.12256856 147.28365736 135.77877808 147.28010559 C125.67856327 147.27081203 115.57844683 147.24623491 105.47827518 147.21605712 C91.81648894 147.17613101 78.15467547 147.16003649 64.49284554 147.14255047 C42.99515679 147.11441168 21.49767556 147.05462425 0 147 C0 98.49 0 49.98 0 0 Z " fill="#FCFCFC" transform="translate(1065,1066)"/>
<path d="M0 0 C8.37375 -0.061875 16.7475 -0.12375 25.375 -0.1875 C27.99872559 -0.21481201 30.62245117 -0.24212402 33.32568359 -0.27026367 C35.43326356 -0.27903538 37.54084866 -0.28667769 39.6484375 -0.29296875 C40.72005127 -0.30831665 41.79166504 -0.32366455 42.89575195 -0.33947754 C52.58508809 -0.34280873 60.41184153 1.28303708 68.2109375 7.20703125 C72.90188147 11.90821746 74.56939506 15.67256133 74.5625 22.3125 C74.33428417 30.60977565 72.29962165 35.61577267 66.5625 41.5 C63.66875793 43.1938978 61.32042173 43.69112356 58 44 C58 44.99 58 45.98 58 47 C59.2065625 47.0928125 59.2065625 47.0928125 60.4375 47.1875 C67.5070242 48.79984762 72.91367471 51.94854323 76.9987793 57.98876953 C78.77012197 61.54700435 78.74334485 64.96425953 78.625 68.875 C78.60288452 70.06754395 78.60288452 70.06754395 78.58032227 71.28417969 C78.31846133 77.52530541 77.19230187 82.19810322 73 87 C72.5153125 87.56847656 72.030625 88.13695312 71.53125 88.72265625 C64.39111758 95.84528835 54.04356288 97.45691079 44.36279297 97.45263672 C43.25822754 97.43217285 42.15366211 97.41170898 41.015625 97.390625 C39.96616699 97.38659668 38.91670898 97.38256836 37.83544922 97.37841797 C33.97345096 97.35773568 30.11170498 97.30189353 26.25 97.25 C17.5875 97.1675 8.925 97.085 0 97 C0 64.99 0 32.98 0 0 Z " fill="#050505" transform="translate(972,1334)"/>
<path d="M0 0 C0 0.66 0 1.32 0 2 C0.59039063 2.26039062 1.18078125 2.52078125 1.7890625 2.7890625 C9.30201197 6.90392882 14.49134559 16.10040738 17 24 C18.61197236 34.64214765 17.8782263 47.91559706 12.04296875 57.0703125 C6.79369402 63.77722229 1.22494367 69.2740861 -7 72 C-14.82036901 72.80352657 -22.60404373 73.09508381 -29 68 C-30.85305871 66.08977752 -32.38919468 64.13194822 -34 62 C-34.66 61.67 -35.32 61.34 -36 61 C-36 73.54 -36 86.08 -36 99 C-41.94 99 -47.88 99 -54 99 C-54 66 -54 33 -54 -1 C-48.72 -1 -43.44 -1 -38 -1 C-37 0 -37 0 -36.9375 3.5625 C-36.958125 4.696875 -36.97875 5.83125 -37 7 C-36.22076172 6.40251953 -36.22076172 6.40251953 -35.42578125 5.79296875 C-23.46089459 -3.29680651 -14.4182514 -5.25437361 0 0 Z " fill="#0B0B0B" transform="translate(906,1361)"/>
<path d="M0 0 C10.04511039 5.77231063 15.90817547 12.75320149 19.0625 24 C21.36604518 36.42585431 20.72607606 48.70468396 14.0625 59.5625 C9.76564077 65.65060576 4.35145343 71.62186383 -3.25 72.9375 C-11.36020211 73.45443923 -19.94196347 73.87412745 -26.5625 68.5 C-28.48171743 66.6700485 -30.37488426 64.81261574 -32.25 62.9375 C-32.25 75.1475 -32.25 87.3575 -32.25 99.9375 C-38.19 99.9375 -44.13 99.9375 -50.25 99.9375 C-50.25 67.2675 -50.25 34.5975 -50.25 0.9375 C-44.97 0.9375 -39.69 0.9375 -34.25 0.9375 C-34.25 3.9075 -34.25 6.8775 -34.25 9.9375 C-33.59 9.9375 -32.93 9.9375 -32.25 9.9375 C-31.99863281 9.34195312 -31.74726562 8.74640625 -31.48828125 8.1328125 C-30.08826116 5.65075796 -28.72811103 4.4855658 -26.4375 2.8125 C-25.77105469 2.31492187 -25.10460937 1.81734375 -24.41796875 1.3046875 C-16.90554985 -3.43287397 -8.03265919 -3.77423245 0 0 Z " fill="#080808" transform="translate(819.25,1360.0625)"/>
<path d="M0 0 C8.04375 -0.0825 16.0875 -0.165 24.375 -0.25 C26.89431152 -0.28641602 29.41362305 -0.32283203 32.00927734 -0.36035156 C34.0348221 -0.37204804 36.06037634 -0.38223758 38.0859375 -0.390625 C39.62858276 -0.4213208 39.62858276 -0.4213208 41.20239258 -0.45263672 C51.29390243 -0.45744793 58.97487749 2.32044842 66.3125 9.2734375 C73.02697834 16.14334357 74.49314349 22.1934034 74.50195312 31.74194336 C74.25982589 39.76974527 71.41701897 46.20331225 66.03125 52.1875 C55.6151924 61.8023224 43.95861419 62.32031091 30.375 62.125 C26.29125 62.08375 22.2075 62.0425 18 62 C18 73.55 18 85.1 18 97 C12.06 97 6.12 97 0 97 C0 64.99 0 32.98 0 0 Z " fill="#050505" transform="translate(497,1334)"/>
<path d="M0 0 C0.87720703 -0.020625 1.75441406 -0.04125 2.65820312 -0.0625 C12.34635863 -0.12046952 19.26039564 3.46924292 26.1875 10.25 C34.60329145 21.49199007 34.1875 25.56236815 34.1875 41.25 C17.3575 41.25 0.5275 41.25 -16.8125 41.25 C-15.8225 46.695 -15.8225 46.695 -14.8125 52.25 C-13.3275 52.745 -13.3275 52.745 -11.8125 53.25 C-10.45881404 54.56266518 -9.12450404 55.89567325 -7.8125 57.25 C-3.1370676 59.5877162 3.11728181 58.76533365 8.1875 58.25 C11.69853033 56.82605359 14.51303205 54.92446795 17.1875 52.25 C19.88404854 52.17680379 22.55441458 52.15757463 25.25 52.1875 C26.38791992 52.19426758 26.38791992 52.19426758 27.54882812 52.20117188 C29.42841871 52.2129932 31.30796899 52.23092922 33.1875 52.25 C30.57567435 59.26850779 26.64819331 66.1932856 20.1875 70.25 C19.37345703 70.80494141 19.37345703 70.80494141 18.54296875 71.37109375 C10.07181166 76.19982037 -1.64178568 75.47953212 -10.94921875 73.625 C-19.45861378 70.63268526 -26.14458458 64.12861522 -30.7421875 56.5 C-35.80623599 45.85440901 -36.75228034 34.39332905 -34.00390625 22.85546875 C-30.18626055 13.6217859 -22.95327272 5.37230927 -13.8125 1.25 C-9.2520232 -0.12319668 -4.72583148 0.02741599 0 0 Z " fill="#070707" transform="translate(1465.8125,1358.75)"/>
<path d="M0 0 C5.94 0 11.88 0 18 0 C18 12.54 18 25.08 18 38 C18.99 37.01 19.98 36.02 21 35 C21.66 35 22.32 35 23 35 C23 34.34 23 33.68 23 33 C30.57134396 27.23135699 37.65939387 26.02778935 47 27 C53.12980598 28.73211099 58.22918817 32.93088334 62 38 C65.64675803 44.51948265 65.38865316 50.58724047 65.29296875 57.93359375 C65.28872391 59.16666763 65.28447906 60.39974152 65.28010559 61.67018127 C65.26336737 65.59284674 65.22572265 69.51499086 65.1875 73.4375 C65.17075097 76.10350811 65.15875969 78.76951132 65.14648438 81.43554688 C65.11347951 87.95723089 65.06172939 94.47852717 65 101 C59.06 101 53.12 101 47 101 C46.99589111 99.48124268 46.99178223 97.96248535 46.98754883 96.39770508 C46.96576809 90.75982786 46.91148801 85.12264958 46.84741211 79.48510742 C46.82422311 77.04572247 46.80983432 74.60623726 46.80444336 72.16674805 C46.79516094 68.65870625 46.75418218 65.15224328 46.70703125 61.64453125 C46.7109639 60.55477493 46.71489655 59.46501862 46.71894836 58.34223938 C46.74392718 51.99956128 46.74392718 51.99956128 43.51831055 46.8347168 C42.68726807 46.22926025 41.85622559 45.62380371 41 45 C40.67 44.67 40.34 44.34 40 44 C31.8113123 43.02840723 31.8113123 43.02840723 24.5 46.0625 C18.7149397 52.85994585 17.40223768 57.55334949 17.390625 66.30859375 C17.37408875 67.27531509 17.35755249 68.24203644 17.34051514 69.23805237 C17.29220082 72.30460062 17.27070079 75.37065353 17.25 78.4375 C17.2218265 80.52541532 17.19189715 82.61330774 17.16015625 84.70117188 C17.08644611 89.80074045 17.0367702 94.90003671 17 100 C11.11376326 100.85617989 6.12321914 101 0 101 C0 67.67 0 34.34 0 0 Z " fill="#0A0B0A" transform="translate(1272,1331)"/>
<path d="M0 0 C5.94 0 11.88 0 18 0 C18.495 18.315 18.495 18.315 19 37 C21.97 34.69 24.94 32.38 28 30 C35.26216013 25.97987564 42.0493979 26.36910726 50 28 C50 28.66 50 29.32 50 30 C50.721875 30.04125 51.44375 30.0825 52.1875 30.125 C56.28189875 31.39881294 57.52448804 33.53428325 60 37 C60 37.66 60 38.32 60 39 C60.66 39 61.32 39 62 39 C63.71432497 42.72708992 64.24552013 45.61729034 64.22705078 49.70825195 C64.22689972 50.82903641 64.22674866 51.94982086 64.22659302 53.10456848 C64.21627045 54.3036937 64.20594788 55.50281891 64.1953125 56.73828125 C64.1924826 57.97418503 64.18965271 59.21008881 64.18673706 60.48344421 C64.17745218 63.75664997 64.15950633 67.02965644 64.1373291 70.30279541 C64.11680817 73.64780848 64.10789268 76.99283026 64.09765625 80.33789062 C64.07561791 86.8920148 64.04109903 93.44596875 64 100 C58.39 100 52.78 100 47 100 C46.9906543 98.5773584 46.98130859 97.1547168 46.97167969 95.68896484 C46.93174106 90.39958643 46.86597051 85.11078725 46.79248047 79.82177734 C46.76429348 77.53474379 46.74306769 75.24761323 46.72900391 72.96044922 C46.70754362 69.66844094 46.66087529 66.37759622 46.609375 63.0859375 C46.60814636 62.06696381 46.60691772 61.04799011 46.60565186 59.99813843 C46.48333973 54.04001382 45.99685165 50.52256203 42 46 C37.7255638 43.15037586 34.00938523 43.63012565 29 44 C24.97378828 44.89471371 22.68125937 46.82066244 20.08291626 50.02813721 C17.86800281 54.06123338 18.27562489 58.59203373 18.29296875 63.0859375 C18.27784744 64.14285797 18.26272614 65.19977844 18.24714661 66.28872681 C18.20429832 69.65103539 18.19543395 73.01244568 18.1875 76.375 C18.16435361 78.66018008 18.13898798 80.94533884 18.11132812 83.23046875 C18.04850342 88.82039182 18.0161458 94.40975508 18 100 C12.06 100 6.12 100 0 100 C0 67 0 34 0 0 Z " fill="#080808" transform="translate(583,1331)"/>
<path d="M0 0 C1.58206057 0.00667536 3.16410534 0.0186375 4.74609375 0.03515625 C5.55240234 0.03966797 6.35871094 0.04417969 7.18945312 0.04882812 C9.18753131 0.06065107 11.18557158 0.07858711 13.18359375 0.09765625 C13.18723938 0.69820831 13.19088501 1.29876038 13.19464111 1.91751099 C13.23651827 8.17977307 13.30590053 14.44130581 13.39111328 20.703125 C13.41930304 23.0386627 13.44052745 25.37429545 13.45458984 27.70996094 C13.47604621 31.07145784 13.52271281 34.43181432 13.57421875 37.79296875 C13.57544739 38.83381622 13.57667603 39.8746637 13.57794189 40.947052 C13.69793446 46.91401652 14.09127325 50.61209368 18.18359375 55.09765625 C21.21880769 56.10939423 23.38092454 56.26339139 26.55859375 56.28515625 C27.49445313 56.29933594 28.4303125 56.31351563 29.39453125 56.328125 C32.39280341 56.08036862 34.51225458 55.47081832 37.18359375 54.09765625 C38.49427708 51.65476997 38.49427708 51.65476997 39.18359375 49.09765625 C39.67859375 48.10765625 39.67859375 48.10765625 40.18359375 47.09765625 C40.30164552 45.58688055 40.36055824 44.07126794 40.38891602 42.55615234 C40.40886124 41.61532806 40.42880646 40.67450378 40.44935608 39.70516968 C40.46606857 38.68742462 40.48278107 37.66967957 40.5 36.62109375 C40.5207811 35.58070953 40.54156219 34.54032532 40.56297302 33.46841431 C40.62849247 30.13656376 40.68736467 26.80463275 40.74609375 23.47265625 C40.78927669 21.21743951 40.8328909 18.96223098 40.87695312 16.70703125 C40.98417633 11.17065592 41.08543704 5.63419945 41.18359375 0.09765625 C47.12359375 0.09765625 53.06359375 0.09765625 59.18359375 0.09765625 C59.18359375 23.52765625 59.18359375 46.95765625 59.18359375 71.09765625 C53.57359375 71.09765625 47.96359375 71.09765625 42.18359375 71.09765625 C42.18359375 68.12765625 42.18359375 65.15765625 42.18359375 62.09765625 C41.64992188 62.5565625 41.11625 63.01546875 40.56640625 63.48828125 C32.6697365 69.99142105 25.22833897 73.95413737 14.78515625 73.46875 C7.23498358 72.39177342 3.2291632 68.5696843 -1.37109375 62.70703125 C-5.30133228 55.61135736 -5.09982145 48.08796974 -5.046875 40.1953125 C-5.04641678 39.07700546 -5.04595856 37.95869843 -5.04548645 36.8065033 C-5.04247905 34.45749848 -5.0346384 32.10849538 -5.0222168 29.75952148 C-5.00384213 26.14755275 -5.00170813 22.53583895 -5.00195312 18.92382812 C-4.99704188 16.63932068 -4.99121529 14.35481498 -4.984375 12.0703125 C-4.98326218 10.98500748 -4.98214935 9.89970245 -4.98100281 8.7815094 C-4.97462296 7.78634811 -4.9682431 6.79118683 -4.96166992 5.76586914 C-4.95595222 4.44638023 -4.95595222 4.44638023 -4.95011902 3.10023499 C-4.70650221 -0.54834588 -3.83639576 0.09816775 0 0 Z " fill="#0C0C0C" transform="translate(1120.81640625,1359.90234375)"/>
<path d="M0 0 C5.56789423 3.26731375 9.43134778 6.9173126 11.77734375 13.04296875 C12.62695481 16.57894453 12.89953717 19.84392398 12.89086914 23.47583008 C12.89075584 25.06691338 12.89075584 25.06691338 12.89064026 26.69013977 C12.88547897 27.82364365 12.88031769 28.95714752 12.875 30.125 C12.87358505 31.29431564 12.8721701 32.46363129 12.87071228 33.66838074 C12.86512168 37.39743626 12.85257084 41.12643142 12.83984375 44.85546875 C12.83482754 47.38606684 12.83026484 49.91666587 12.82617188 52.44726562 C12.81515531 58.64585654 12.79789707 64.84440241 12.77734375 71.04296875 C7.16734375 71.04296875 1.55734375 71.04296875 -4.22265625 71.04296875 C-4.23723877 69.65062012 -4.25182129 68.25827148 -4.2668457 66.82373047 C-4.32492169 61.64622625 -4.40215467 56.46915268 -4.48510742 51.29199219 C-4.51831291 49.05345664 -4.54635841 46.81483826 -4.5690918 44.57617188 C-4.6027177 41.35380836 -4.65503897 38.13220101 -4.7109375 34.91015625 C-4.71732742 33.91305634 -4.72371735 32.91595642 -4.7303009 31.88864136 C-4.87035048 25.23416667 -5.75551142 20.72158314 -10.41015625 15.66796875 C-14.08615802 13.54405662 -17.12882538 13.41254993 -21.22265625 14.04296875 C-25.87812828 15.43961036 -28.78417846 16.91501283 -31.40637207 21.08868408 C-33.13437314 25.22573106 -32.82670517 29.7117061 -32.83203125 34.12890625 C-32.8485675 35.18582672 -32.86510376 36.24274719 -32.88214111 37.33169556 C-32.93056657 40.69384607 -32.95198068 44.0555444 -32.97265625 47.41796875 C-33.00082038 49.70314768 -33.03074842 51.9883056 -33.0625 54.2734375 C-33.13632461 59.86324403 -33.18593298 65.45280033 -33.22265625 71.04296875 C-39.16265625 71.04296875 -45.10265625 71.04296875 -51.22265625 71.04296875 C-51.22265625 47.94296875 -51.22265625 24.84296875 -51.22265625 1.04296875 C-45.61265625 1.04296875 -40.00265625 1.04296875 -34.22265625 1.04296875 C-33.89265625 3.35296875 -33.56265625 5.66296875 -33.22265625 8.04296875 C-32.20945312 7.21152344 -32.20945312 7.21152344 -31.17578125 6.36328125 C-30.28375 5.63882812 -29.39171875 4.914375 -28.47265625 4.16796875 C-27.5909375 3.44867187 -26.70921875 2.729375 -25.80078125 1.98828125 C-18.45045268 -3.55787576 -8.41726779 -3.79043983 0 0 Z " fill="#080808" transform="translate(1405.22265625,1359.95703125)"/>
<path d="M0 0 C4.02900349 3.34637306 7.31801756 6.73290604 9.74609375 11.38671875 C9.83984375 14.06640625 9.83984375 14.06640625 9.74609375 16.38671875 C8.01752916 16.86805285 6.28821304 17.34668846 4.55859375 17.82421875 C3.59566406 18.09105469 2.63273437 18.35789062 1.640625 18.6328125 C-0.98054322 19.31551893 -3.59284125 19.8856407 -6.25390625 20.38671875 C-9.25390625 15.63671875 -9.25390625 15.63671875 -9.25390625 13.38671875 C-10.05828125 13.07734375 -10.86265625 12.76796875 -11.69140625 12.44921875 C-14.25390625 11.38671875 -14.25390625 11.38671875 -15.25390625 10.38671875 C-20.02760197 9.97022181 -24.63295879 9.75243496 -29.12890625 11.51171875 C-34.71242208 16.43835036 -37.72874481 21.03064282 -38.625 28.46484375 C-38.78574855 36.14295107 -37.81588793 42.05134701 -33.25390625 48.38671875 C-32.26390625 49.04671875 -31.27390625 49.70671875 -30.25390625 50.38671875 C-30.25390625 51.04671875 -30.25390625 51.70671875 -30.25390625 52.38671875 C-28.19206992 52.46822619 -26.12929276 52.52613815 -24.06640625 52.57421875 C-22.34357422 52.62642578 -22.34357422 52.62642578 -20.5859375 52.6796875 C-16.95821418 52.36072003 -15.22621068 51.39817166 -12.25390625 49.38671875 C-11.59390625 49.38671875 -10.93390625 49.38671875 -10.25390625 49.38671875 C-9.04762617 47.05457727 -8.08843245 44.89029736 -7.25390625 42.38671875 C-1.13905598 42.28965763 4.67912676 42.61631024 10.74609375 43.38671875 C8.8901235 52.10977891 4.8391301 58.34207522 -2.62890625 63.32421875 C-12.48662026 69.04036969 -23.83064459 70.3864172 -35.00390625 67.44921875 C-40.80699722 65.13013964 -45.0424688 60.88215116 -49.25390625 56.38671875 C-49.97578125 55.66355469 -50.69765625 54.94039062 -51.44140625 54.1953125 C-58.80297385 45.18629731 -57.20506535 32.38087728 -56.25390625 21.38671875 C-55.94636313 19.71510094 -55.62063573 18.04635677 -55.25390625 16.38671875 C-54.59390625 16.38671875 -53.93390625 16.38671875 -53.25390625 16.38671875 C-53.21265625 15.72671875 -53.17140625 15.06671875 -53.12890625 14.38671875 C-51.18076759 7.70738619 -45.88792667 2.25320335 -40.25390625 -1.61328125 C-27.39701903 -7.1498507 -11.77889105 -8.43099134 0 0 Z " fill="#070808" transform="translate(1250.25390625,1364.61328125)"/>
<path d="M0 0 C5.61 0 11.22 0 17 0 C17 33.33 17 66.66 17 101 C11.39 100.67 5.78 100.34 0 100 C0 67 0 34 0 0 Z " fill="#080908" transform="translate(700,1331)"/>
<path d="M0 0 C0 5.61 0 11.22 0 17 C-1.670625 17.0825 -3.34125 17.165 -5.0625 17.25 C-10.44496782 17.73553189 -13.63448106 18.84196502 -18 22 C-18.66 22.99 -19.32 23.98 -20 25 C-20.66 25 -21.32 25 -22 25 C-22.92347857 30.570449 -23.20687526 36.01148101 -23.31640625 41.65234375 C-23.33718735 42.55247696 -23.35796844 43.45261017 -23.37937927 44.38002014 C-23.44433837 47.23244187 -23.50350828 50.08494925 -23.5625 52.9375 C-23.60573633 54.88086794 -23.64935219 56.82422748 -23.69335938 58.76757812 C-23.8006726 63.51163257 -23.90014361 68.25575939 -24 73 C-29.94 73 -35.88 73 -42 73 C-42 49.24 -42 25.48 -42 1 C-36.06 1 -30.12 1 -24 1 C-24 4.63 -24 8.26 -24 12 C-23.34 12 -22.68 12 -22 12 C-21.91105469 11.41605469 -21.82210938 10.83210938 -21.73046875 10.23046875 C-20.34230493 5.99174394 -16.55312408 3.4911202 -13 1 C-8.50637841 -0.37559845 -4.84610473 0 0 0 Z " fill="#0B0B0B" transform="translate(1555,1359)"/>
<path d="M0 0 C0.89203125 0.01804687 1.7840625 0.03609375 2.703125 0.0546875 C3.71632813 0.08949219 3.71632813 0.08949219 4.75 0.125 C4.77705308 2.54174224 4.79686438 4.9581794 4.8125 7.375 C4.82087891 8.05691406 4.82925781 8.73882813 4.83789062 9.44140625 C4.85428392 12.81842554 4.80628768 15.89791639 3.75 19.125 C2.42935547 19.18107422 2.42935547 19.18107422 1.08203125 19.23828125 C-0.66013672 19.33689453 -0.66013672 19.33689453 -2.4375 19.4375 C-3.58605469 19.49550781 -4.73460937 19.55351563 -5.91796875 19.61328125 C-9.57990962 20.17566607 -11.3845536 20.78929999 -14.25 23.125 C-18.3563905 28.92085784 -18.85009053 33.43367783 -18.859375 40.43359375 C-18.87591125 41.40031509 -18.89244751 42.36703644 -18.90948486 43.36305237 C-18.95779918 46.42960062 -18.97929921 49.49565353 -19 52.5625 C-19.0281735 54.65041532 -19.05810285 56.73830774 -19.08984375 58.82617188 C-19.16355389 63.92574045 -19.2132298 69.02503671 -19.25 74.125 C-25.19 74.125 -31.13 74.125 -37.25 74.125 C-37.25 50.695 -37.25 27.265 -37.25 3.125 C-31.97 3.125 -26.69 3.125 -21.25 3.125 C-21.25 6.425 -21.25 9.725 -21.25 13.125 C-20.59 13.125 -19.93 13.125 -19.25 13.125 C-19.085 12.42375 -18.92 11.7225 -18.75 11 C-15.23882452 4.27024699 -7.48910787 -0.19708179 0 0 Z " fill="#090909" transform="translate(1101.25,1357.875)"/>
<path d="M0 0 C0.66 0.33 1.32 0.66 2 1 C2 1.66 2 2.32 2 3 C2.7425 3.2475 3.485 3.495 4.25 3.75 C8.77928144 5.80876429 10.5268397 8.0536794 12.75 12.5 C15.39540156 20.48054102 14.94048916 27.8227134 11.4375 35.4375 C8.7448439 40.20431346 6.3509732 44.1933061 1 46 C-3.94721454 46.85598944 -8.65737444 47.20630807 -13.22265625 44.85546875 C-18.4592873 40.64170406 -20.89654856 35.56263226 -22 29 C-22.7307481 19.59864469 -21.67086092 12.92619535 -15.5625 5.625 C-10.71576328 0.18190865 -7.04324207 -0.34080204 0 0 Z " fill="#F6F6F6" transform="translate(891,1372)"/>
<path d="M0 0 C5.69402552 2.34459874 8.11337915 7.17752613 10.42578125 12.65234375 C12.70769849 20.62150088 11.97431093 29.00003751 8.1875 36.3125 C4.60261957 40.55775314 0.84863515 43.88785077 -4.75 44.78125 C-13.05344307 44.86597901 -13.05344307 44.86597901 -16.8125 42.125 C-17.8025 40.7328125 -17.8025 40.7328125 -18.8125 39.3125 C-19.92625 38.1059375 -19.92625 38.1059375 -21.0625 36.875 C-25.25571207 30.73493947 -24.50348915 21.45010387 -23.8125 14.3125 C-19.89172988 1.51929748 -12.68282539 -2.28706687 0 0 Z " fill="#F7F7F7" transform="translate(809.8125,1373.6875)"/>
<path d="M0 0 C5.61 0 11.22 0 17 0 C17 23.43 17 46.86 17 71 C11.06 71 5.12 71 -1 71 C-1.0225528 61.89040511 -1.04091611 52.78082863 -1.05181217 43.6712122 C-1.05704056 39.44168629 -1.0641374 35.2121804 -1.07543945 30.98266602 C-1.08626991 26.90431457 -1.09227717 22.82598243 -1.09487724 18.74761772 C-1.09673121 17.18822361 -1.10035127 15.6288306 -1.10573006 14.06944466 C-1.11294262 11.89270838 -1.11399085 9.71605286 -1.11352539 7.53930664 C-1.115746 6.29798477 -1.11796661 5.0566629 -1.12025452 3.77772522 C-1 1 -1 1 0 0 Z " fill="#121211" transform="translate(665,1360)"/>
<path d="M0 0 C5.61 0 11.22 0 17 0 C17.02255261 9.23997871 17.04091601 18.47993928 17.05181217 27.71993923 C17.05704061 32.00999915 17.06413753 36.30003933 17.07543945 40.59008789 C17.08626975 44.726794 17.09227714 48.86348108 17.09487724 53.00020027 C17.09673124 54.58192304 17.10035136 56.16364471 17.10573006 57.74535942 C17.1129424 59.95322838 17.11399086 62.16101773 17.11352539 64.36889648 C17.115746 65.62798325 17.11796661 66.88707001 17.12025452 68.18431091 C17 71 17 71 16 72 C10.72 72 5.44 72 0 72 C0 48.24 0 24.48 0 0 Z " fill="#0D0D0D" transform="translate(735,1360)"/>
<path d="M0 0 C4.66125 -0.103125 9.3225 -0.20625 14.125 -0.3125 C15.58437988 -0.35802002 17.04375977 -0.40354004 18.54736328 -0.45043945 C29.23030589 -0.5651904 29.23030589 -0.5651904 32.8671875 2.39453125 C37.22856822 7.72244506 36.43787391 13.34269474 36 20 C34.33294383 25.27901119 31.8046062 27.35256393 27 30 C23.81953485 31.02899867 20.90952076 31.116164 17.578125 31.09765625 C16.65418945 31.09515869 15.73025391 31.09266113 14.77832031 31.09008789 C13.61397461 31.08098389 12.44962891 31.07187988 11.25 31.0625 C7.5375 31.041875 3.825 31.02125 0 31 C0 20.77 0 10.54 0 0 Z " fill="#F8F8F8" transform="translate(515,1350)"/>
<path d="M0 0 C4.32392847 -0.06903966 8.6459293 -0.12871715 12.9699707 -0.16479492 C14.43943782 -0.17984066 15.90886034 -0.20028238 17.37817383 -0.22631836 C19.4957177 -0.26288955 21.61266565 -0.27976801 23.73046875 -0.29296875 C25.63928833 -0.31653442 25.63928833 -0.31653442 27.58666992 -0.34057617 C31.26827589 0.0267681 33.09417268 0.75334826 36 3 C39.36318461 8.56665039 40.25823334 14.58003776 39 21 C36.89834313 23.93075087 34.20981028 25.39509486 31 27 C28.67583704 27.08586809 26.34916693 27.10711043 24.0234375 27.09765625 C23.33819 27.0962413 22.6529425 27.09482635 21.94692993 27.09336853 C19.75624239 27.08776675 17.5656567 27.07521406 15.375 27.0625 C13.89062648 27.05748522 12.40625135 27.05292228 10.921875 27.04882812 C7.2811791 27.03864721 3.64070369 27.01907237 0 27 C0 18.09 0 9.18 0 0 Z " fill="#F6F7F6" transform="translate(991,1388)"/>
<path d="M0 0 C4.31403682 -0.16279384 8.62186248 -0.28132725 12.9375 -0.375 C14.14986328 -0.42527344 15.36222656 -0.47554687 16.61132812 -0.52734375 C23.72093586 -0.64294713 28.73843207 -0.1481792 34.44213867 4.32910156 C36 6 36 6 36.94921875 8.81640625 C36.86285156 9.72261719 36.77648438 10.62882812 36.6875 11.5625 C36.60048828 12.92568359 36.60048828 12.92568359 36.51171875 14.31640625 C35.74352502 18.34502528 35.21625266 21.07980884 31.84765625 23.62841797 C28.38798195 25.2947803 25.99766153 25.34358143 22.16796875 25.29296875 C20.87568359 25.28330078 19.58339844 25.27363281 18.25195312 25.26367188 C16.8971293 25.23860985 15.54231159 25.21321506 14.1875 25.1875 C12.81316555 25.17244013 11.43881532 25.15875401 10.06445312 25.14648438 C6.70946596 25.11116872 3.35468262 25.05736316 0 25 C0 16.75 0 8.5 0 0 Z " fill="#F1F1F0" transform="translate(990,1349)"/>
<path d="M0 0 C2.90590735 2.10678283 4.69433162 3.68730473 6.5 6.8125 C6.5 9.4525 6.5 12.0925 6.5 14.8125 C-4.39 14.8125 -15.28 14.8125 -26.5 14.8125 C-27.5 10.8125 -27.5 10.8125 -26.625 7.9375 C-20.20270208 -1.50705577 -10.60918578 -3.59954518 0 0 Z " fill="#EDEEEC" transform="translate(1475.5,1374.1875)"/>
<path d="M0 0 C1.71703125 0.01933594 1.71703125 0.01933594 3.46875 0.0390625 C4.6134375 0.02617188 5.758125 0.01328125 6.9375 0 C9.96875 0.6640625 9.96875 0.6640625 11.85546875 2.94921875 C13.47979442 6.91029363 13.3080414 9.38899084 12.96875 13.6640625 C11.94921875 15.91015625 11.94921875 15.91015625 10.96875 17.6640625 C8.50976345 17.74483213 6.05341258 17.80443393 3.59375 17.8515625 C2.89507813 17.87669922 2.19640625 17.90183594 1.4765625 17.92773438 C-0.5546875 17.95703125 -0.5546875 17.95703125 -4.03125 17.6640625 C-6.07961083 14.59152125 -6.32581493 13.79237965 -6.34375 10.2890625 C-6.36050781 9.53882813 -6.37726562 8.78859375 -6.39453125 8.015625 C-5.70208235 3.53332139 -4.58660215 1.00479686 0 0 Z " fill="#101110" transform="translate(669.03125,1330.3359375)"/>
<path d="M0 0 C1.8871875 0.00773437 1.8871875 0.00773437 3.8125 0.015625 C5.070625 0.01046875 6.32875 0.0053125 7.625 0 C10.8125 0.265625 10.8125 0.265625 12.8125 2.265625 C13.04296875 4.7265625 13.04296875 4.7265625 13 7.640625 C12.99355469 8.59710937 12.98710938 9.55359375 12.98046875 10.5390625 C12.83307959 12.93156568 12.49069373 14.97604297 11.8125 17.265625 C9.16659986 17.29247179 6.52096904 17.31238857 3.875 17.328125 C3.12025391 17.33650391 2.36550781 17.34488281 1.58789062 17.35351562 C-0.33744313 17.36214941 -2.26285581 17.31786833 -4.1875 17.265625 C-6.12091947 15.33220553 -5.36199133 11.89083379 -5.375 9.328125 C-5.38917969 8.06097656 -5.40335938 6.79382812 -5.41796875 5.48828125 C-5.10357557 1.09210548 -4.39133249 0.36594437 0 0 Z " fill="#0B0C0C" transform="translate(740.1875,1330.734375)"/>
<path d="M0 0 C0.66 0.33 1.32 0.66 2 1 C-1.96 4.96 -5.92 8.92 -10 13 C-10 8.83248505 -7.76127698 6.85829482 -5 4 C-3.36927384 2.62294236 -1.7133562 1.27277889 0 0 Z " fill="#303130" transform="translate(1210,1363)"/>
<path d="M0 0 C3.65646331 3.65646331 4.79304546 9.36449726 5.19140625 14.4375 C5.18809328 16.2927611 5.10291153 18.14759239 5 20 C4.67 20 4.34 20 4 20 C4 18.02 4 16.04 4 14 C3.34 14 2.68 14 2 14 C1.66179834 12.4176994 1.32964061 10.83410625 1 9.25 C0.814375 8.36828125 0.62875 7.4865625 0.4375 6.578125 C0 4 0 4 0 0 Z " fill="#A2A3A2" transform="translate(1320,1110)"/>
<path d="M0 0 C2.75383923 1.37691962 3.51483101 3.36720042 5 6 C1.7 5.34 -1.6 4.68 -5 4 C-5 3.34 -5 2.68 -5 2 C-2.625 0.9375 -2.625 0.9375 0 0 Z " fill="#C2C2C0" transform="translate(1290,1042)"/>
<path d="M0 0 C2.93200474 2.85276137 5.64315404 5.65079784 8 9 C7.67 9.66 7.34 10.32 7 11 C4.35247996 8.42215154 2.05567935 6.08351902 0 3 C0 2.01 0 1.02 0 0 Z " fill="#D5D8D7" transform="translate(1288,924)"/>
<path d="M0 0 C0.33 1.32 0.66 2.64 1 4 C0.34 4 -0.32 4 -1 4 C-0.67 5.65 -0.34 7.3 0 9 C-1.32 8.01 -2.64 7.02 -4 6 C-2.68 4.02 -1.36 2.04 0 0 Z " fill="#333534" transform="translate(1038,861)"/>
</svg>
